<?xml version="1.0" encoding="UTF-8"?>
<svg id="Capa_2" data-name="Capa 2" xmlns="http://www.w3.org/2000/svg" viewBox="0 0 109.88 94.33">
  <defs>
    <style>
      .cls-1 {
        fill: #fdfdfd;
      }

      .cls-2 {
        fill: #eb1c25;
      }
    </style>
  </defs>
  <g id="Capa_1-2" data-name="Capa 1">
    <path d="M39.41,79.03h-8.43v-8.26h-7.76v-7.91h-7.82v-7.7H7.48v-7.81H0V15.79H7.27V7.68h7.85V0h23.68V7.54h7.79v7.9h15.82c.13-2.53,.25-5.05,.39-7.75h7.62V0h23.51V7.52h7.93V15.6h8.02v31.53h-7.87v7.75h-7.82v7.23c-2.79,.35-5.22,.66-7.66,.97-1.01,2.43,.76,5.38-1.34,7.75h-6.78v7.83h-7.87v7.92h-7.91v7.74h-15.87v-7.94c-2.58-.15-4.78-.27-7.42-.42,0-2.32,0-4.65,0-6.99h7.47c.17,2.12,.35,4.51,.54,6.89h14.57c.18-2.49,.34-4.7,.52-7.16,2.69-.17,5.09-.32,7.38-.46,.81-2.65-.25-5.19,1.25-7.43,2.29-.14,4.6-.28,7.06-.42,.17-2.71,.31-5.02,.46-7.37,2.57-.2,4.77-.37,7.14-.55,.15-2.63,.28-4.85,.4-6.98,2.57-1.18,5.28,.31,7.72-1.39,.13-2.2,.26-4.52,.39-6.74,2.57-1.01,5.1,.63,7.36-.95V16.05c-2.64-.16-4.96-.3-7.32-.44-.17-2.67-.32-4.98-.46-7.23h-22.78c-.15,2.59-.28,4.81-.42,7.24-2.93,.16-5.57,.31-8.26,.46-.14,2.41-.26,4.51-.39,6.81h-15.18c-.13-2.44-.24-4.64-.35-6.87-2.73-.17-5.05-.31-7.44-.45-.16-2.7-.29-5.02-.42-7.21H15.6c-.16,2.68-.3,4.99-.44,7.41-2.69,.14-5,.26-7.25,.38v30.71c2.62,.14,4.94,.27,7.3,.4,.18,2.71,.33,5.02,.48,7.39,2.7,.16,5.02,.3,7.37,.44,.17,2.69,.31,5,.46,7.4,2.72,.13,5.05,.24,7.2,.35,1.62,2.53-.78,5.3,1.28,7.52,2.17,.11,4.39,.23,6.94,.37,.17,2.95,.32,5.62,.47,8.29Z"/>
    <path class="cls-2" d="M39.41,79.03c-.15-2.67-.31-5.34-.47-8.29-2.55-.14-4.78-.25-6.94-.37-2.05-2.22,.34-4.99-1.28-7.52-2.15-.1-4.48-.22-7.2-.35-.15-2.4-.29-4.72-.46-7.4-2.35-.14-4.67-.28-7.37-.44-.15-2.37-.3-4.69-.48-7.39-2.36-.13-4.67-.26-7.3-.4V16.16c2.25-.12,4.57-.24,7.25-.38,.14-2.42,.28-4.73,.44-7.41h22.97c.13,2.19,.26,4.51,.42,7.21,2.38,.15,4.7,.29,7.44,.45,.11,2.23,.23,4.43,.35,6.87h15.18c.13-2.31,.25-4.41,.39-6.81,2.69-.15,5.33-.3,8.26-.46,.14-2.43,.27-4.65,.42-7.24h22.78c.14,2.25,.29,4.56,.46,7.23,2.37,.14,4.68,.28,7.32,.44v30.37c-2.27,1.58-4.8-.06-7.36,.95-.13,2.22-.26,4.53-.39,6.74-2.44,1.7-5.15,.21-7.72,1.39-.12,2.13-.25,4.35-.4,6.98-2.37,.18-4.56,.35-7.14,.55-.15,2.35-.29,4.66-.46,7.37-2.45,.15-4.76,.29-7.06,.42-1.5,2.24-.44,4.78-1.25,7.43-2.29,.14-4.69,.29-7.38,.46-.18,2.46-.34,4.67-.52,7.16h-14.57c-.19-2.38-.37-4.77-.54-6.89h-7.47s.06,.05,.06,.05Zm54.74-39.81c.62-5.24,.97-10.38-.29-15.67h-7.38v-7.58h-7.87v15.57h7.81v7.68h7.73Z"/>
    <path class="cls-1" d="M94.15,39.22h-7.73v-7.68h-7.81V15.97h7.87v7.58h7.38c1.26,5.29,.91,10.43,.29,15.67Z"/>
  </g>
</svg>