<?xml version="1.0" encoding="UTF-8"?>
<svg id="Capa_2" data-name="Capa 2" xmlns="http://www.w3.org/2000/svg" viewBox="0 0 56.97 71.48">
  <g id="Capa_1-2" data-name="Capa 1">
    <path d="M28.5,0C37.58,0,46.67,0,55.76,0c1.18,0,1.19,.01,1.2,1.11,.01,1.69,0,3.38,0,5.07,0,1.47-.01,1.52-1.49,1.53-.72,0-.98,.18-.94,.93,.06,1.04-.02,2.09,.03,3.13,.03,.65-.21,.86-.82,.79-.24-.03-.49,.03-.72-.01-.78-.12-.9,.26-.9,.95,0,1.4-.05,1.45-1.31,1.45-.75,0-1.18,0-1.12,1.01,.08,1.35-.03,1.43-1.33,1.4-.84-.02-1.08,.17-1.08,1.05,0,1.08-.3,1.4-1.41,1.34-1.06-.06-.98,.45-.97,1.15,.02,4.5,0,9.01,0,13.51,0,8.52,0,17.05,0,25.57,0,1.09,0,1.11,1.24,1.31,.72,.11,1.17,.46,1.16,1.19-.01,.79-.03,1.33,1.09,1.28,1.03-.05,1.25,.27,1.3,1.46,.03,.73,.23,.9,.95,.94,1.18,.05,1.42,.26,1.46,1.32,.03,.78,.08,1.12,1.03,1.11,1.17-.01,1.91,1.48,1.41,2.59-.11,.24-.34,.27-.6,.27-.96,0-1.93,0-2.9,0-.55,0-1.23,.14-1.62-.13-.46-.31-.17-1.03-.18-1.57,0-.49-.11-.76-.66-.71-.16,.02-.32,0-.48,0q-1.23-.06-1.29-1.26c-.06-1.2-.06-1.15-1.16-1.17-.67-.01-.82,.25-.78,.84,.04,.56,.01,1.13,0,1.69q-.01,2.3-2.21,2.32c-.56,0-1.13,0-1.69,0-1.36,0-2.73-.02-4.09-.02-.49-1.31-.13-2.68-.19-4.01-.03-.63-.2-.89-.82-.79-.47,.08-1.24-.33-1.13,.7,.02,.16,0,.32,0,.48q-.05,1.17-1.32,1.23-1.04,.05-1.09,1.22c-.05,1.17-.05,1.18-1.12,1.19-.96,.01-1.93,.03-2.89-.01-.44-.02-1.18,.27-1.24-.29-.07-.72-.44-1.61,.32-2.25,.06-.05,.11-.15,.17-.16,.59-.12,1.33-.06,1.75-.39,.45-.35-.14-1.18,.36-1.76,.45-.53,.98-.45,1.52-.43,.54,.02,.62-.23,.67-.71,.16-1.52,.19-1.57,1.59-1.69,.6-.05,.78-.17,.83-.8,.12-1.45,.17-1.47,1.66-1.62,.46-.05,.77-.08,.73-.64-.03-.4,0-.8,0-1.21V21.59c0-.16,0-.32,0-.48q-.02-1.26-1.24-1.32t-1.18-1.14-1.28-1.28q-1.09-.05-1.14-1.18c-.05-1.17-.05-1.21-1.32-1.22-.73,0-1.2,.03-1.13-.99,.09-1.36-.03-1.37-1.32-1.44q-1-.05-1.06-1.26-.05-1.1-1.16-1.16-1.19-.06-1.26-1.3c-.06-1.1-.06-1.11-1.2-1.11-4.91,0-9.81,0-14.72-.01-.65,0-1,.04-1,.86,.04,5.87,.02,11.74,.01,17.61,0,.55,.04,.95,.76,.85,.32-.04,.64,.02,.96-.01,.5-.05,.72,.12,.71,.65-.02,1.85,0,3.7-.01,5.55-.02,1.18-.2,1.35-1.54,1.52-.3,.04-.75-.1-.84,.25-.11,.46-.05,.96,0,1.44,0,.09,.23,.21,.37,.23,.24,.04,.48,0,.72,.01q1.25,.06,1.3,1.25,.05,1.11,1.15,1.16c.24,.01,.48,.01,.72,0,.41-.02,.54,.19,.54,.57,0,2.98-.01,5.95,0,8.93,0,.54-.22,.7-.71,.65-.16-.02-.32,0-.48,0q-1.16,.05-1.23,1.33c0,.16,0,.32,0,.48,0,.35-.05,.61-.5,.61-2.25-.01-4.5,0-6.76,0-.3,0-.44-.14-.46-.41-.02-.4-.04-.81,0-1.21,.06-.61-.14-.89-.79-.81-.32,.04-.64-.02-.96,.01-.52,.05-.68-.18-.67-.69,.02-2.65,0-5.31,.02-7.96,0-1.07,.26-1.41,1.34-1.46,.78-.03,1.12-.09,1.11-1.04-.02-1.1,.27-1.26,1.39-1.41,.3-.04,.75,.19,.87-.16,.15-.43,.16-.94,.09-1.4-.08-.59-.62-.31-.97-.36-1.11-.16-1.41-.41-1.42-1.41-.03-1.85,.02-3.7-.02-5.55-.02-.68,.26-.82,.84-.77,.32,.03,.64-.02,.96,0,.56,.04,.68-.25,.63-.73-.02-.16,0-.32,0-.48,0-5.63,0-11.26-.01-16.89,0-.38,.17-1.1-.15-1.07-.67,.06-1.18-.76-1.81-.31-.39,.28-.77,.16-1.14,.16-2.08,0-1.68,.26-1.71-1.55C0,4.63,0,3.1,.01,1.57,.02,0,.02,0,1.72,0,5.74,0,9.76,0,13.78,0h14.72ZM2.91,44.47s.03,0,.04,0v4.56c1.56,.44,3.16,.09,4.74,.19,.32,.02,.64,.01,.96,0,1.39-.06,1.67-.51,1.22-1.95-.04-.14-.22-.27-.2-.39,.24-1.7-.49-3.46,.41-5.13,.24-.44,.04-1.1,.06-1.66,.02-.44-.23-.53-.59-.52-.32,0-.64,0-.96,0q-1.28-.03-1.34-1.45c0-.16,.01-.32,0-.48-.08-.81-.71-.41-1.1-.47-.36-.05-.84-.13-.82,.51,0,.4-.02,.81,0,1.2,.04,.51-.14,.74-.67,.69-.32-.03-.65,.03-.96-.01-.64-.08-.82,.18-.8,.8,.04,1.36,.01,2.73,.01,4.1ZM36.69,11.21c0-.96,0-1.92,0-2.88,0-.34-.04-.61-.5-.61-1.92,.01-3.84,.01-5.76,0-.44,0-.48,.25-.51,.6-.11,1.21-.05,1.29,1.21,1.34q1.16,.05,1.21,1.09c.06,1.26,.06,1.3,1.46,1.31,.67,0,1.08,.08,.97,.88-.05,.31,0,.64,0,.96,0,.35,.08,.55,.51,.61,1.16,.15,1.41-.02,1.42-1.13,.01-.72,0-1.44,0-2.16Zm8.29-.25s-.06,0-.09,0c0,.96,.04,1.92-.01,2.88-.04,.8,.5,.66,.94,.64,.41-.02,1.03,.25,1-.57,0-.24-.01-.48,0-.72q.05-1.06,1.19-1.11c.24,0,.48-.01,.72,0,.44,.03,.5-.25,.51-.6,.01-.55-.14-1.22,.12-1.62,.3-.48,1.03-.21,1.56-.18,.98,.06,.69-.61,.74-1.11,.05-.54-.02-.91-.74-.86-.95,.06-1.92-.02-2.88,.03-1.02,.05-2.05-.21-3.05,.14v3.08Z"/>
  </g>
</svg>