<?xml version="1.0" encoding="UTF-8"?>
<svg id="Capa_2" data-name="Capa 2" xmlns="http://www.w3.org/2000/svg" viewBox="0 0 29.12 25">
  <defs>
    <style>
      .cls-1 {
        fill: #fff;
      }
    </style>
  </defs>
  <g id="Capa_1-2" data-name="Capa 1">
    <path class="cls-1" d="M10.44,20.94h-2.23v-2.19h-2.06v-2.1h-2.07v-2.04H1.98v-2.07H0V4.18H1.93V2.04h2.08V0h6.28V2h2.06v2.09h4.19c.03-.67,.07-1.34,.1-2.05h2.02V0h6.23V1.99h2.1v2.14h2.13V12.49h-2.09v2.05h-2.07v1.92c-.74,.09-1.38,.18-2.03,.26-.27,.64,.2,1.42-.35,2.05h-1.8v2.08h-2.08v2.1h-2.1v2.05h-4.21v-2.1c-.68-.04-1.27-.07-1.97-.11,0-.61-.03-2.55,.01-1.84Z"/>
  </g>
</svg>